PathFileType	4	(X/Y/Z)	C:/Users/beibeiliu/ov580/test_trc/capture2\sequence.36_training_dense_right.trc
DataRate	CameraRate	NumFrames	NumMarkers	Units	OrigDataRate	OrigDataStartFrame	OrigNumFrames
120	120	10	19	mm	120	94	374
Frame#	Time	ThumbCMC			ThumbMCP			ThumbIP			ThumbTip			IndexMCP			IndexPIP			IndexTip			MiddleMCP			MiddlePIP			MiddleTip			RingMCP			RingPIP			RingTip			PinkyMCP			PinkyPIP			PinkyTip			BackHand1			BackHand2			BackHand3	
		X0	Y0	Z0	X1	Y1	Z1	X2	Y2	Z2	X3	Y3	Z3	X4	Y4	Z4	X5	Y5	Z5	X6	Y6	Z6	X7	Y7	Z7	X8	Y8	Z8	X9	Y9	Z9	X10	Y10	Z10	X11	Y11	Z11	X12	Y12	Z12	X13	Y13	Z13	X14	Y14	Z14	X15	Y15	Z15	X16	Y16	Z16	X17	Y17	Z17	X18	Y18	Z18	
93	0.775	156.721	39.3925	30.3636	138.299	53.2314	8.41811	132.965	58.7485	-20.3886	125.607	58.3505	-41.8529	163.615	23.793	-38.9165	138.458	32.8784	-55.6833	111.413	35.6348	-32.5764	155.725	5.83751	-40.6164	121.074	14.4027	-47.3513	113.446	24.3173	-13.9165	141.632	-10.5108	-37.8785	115.401	0.511481	-39.7548	110.241	15.4635	-11.2188	133.45	-26.6542	-25.8652	109.016	-11.3892	-28.8455	112.23	6.59256	-0.955897	167.651	-23.6828	12.1293	167.454	-16.5212	47.7995	180.921	9.20804	24.9996	
94	0.783333	154.894	38.9052	33.7769	137.924	53.2791	10.7952	132.02	60.7046	-19.2714	124.808	54.1458	-43.224	161.058	21.6334	-39.6751	133.897	30.4275	-54.2939	111.482	39.3164	-34.5017	153.54	4.82647	-42.1677	121.36	15.2332	-46.8924	113.125	23.505	-12.2408	141.13	-12.1656	-38.4479	113.364	-0.864523	-38.0431	108.204	11.9899	-7.18174	135.987	-25.1374	-23.3201	111.32	-9.80034	-28.9683	114.101	7.68853	1.1306	166.749	-22.3706	12.8367	167.116	-19.4936	42.1333	181.302	11.3221	29.0196	
95	0.791667	155.52	42.1087	31.4853	138.704	55.4989	9.52239	131.857	60.2484	-21.209	126.108	52.2289	-40.4008	163.058	24.6603	-38.0497	134.116	29.9788	-53.799	111.689	38.0079	-33.2972	153.117	1.73293	-39.8735	122.32	14.7248	-48.3791	111.356	21.3864	-13.8002	143.356	-10.8421	-36.322	114.608	0.510886	-38.3181	109.93	12.515	-6.60805	135.973	-25.351	-25.3616	109.957	-9.96467	-26.9101	113.193	4.46953	-0.571149	170.214	-19.9766	13.557	169.22	-18.8173	43.4652	179.559	8.57392	24.8642	
96	0.8	156.397	43.3792	30.5756	139.506	50.3242	5.98392	133.267	58.3266	-17.4876	127.051	53.0523	-42.036	162.259	25.9849	-39.5437	136.391	32.7853	-54.4005	110.43	33.7773	-32.0088	151.41	6.66728	-44.4405	120.507	12.4245	-47.6495	110.57	23.3048	-16.0646	141.979	-13.1725	-35.382	112.103	2.17108	-35.4598	113.237	16.2335	-6.01857	135.118	-30.1907	-24.4668	112.78	-8.56901	-28.6324	110.202	5.11519	-2.11073	169.586	-18.0718	14.9987	170.287	-15.4991	42.6388	180.111	11.2854	28.8624	
97	0.808333	155.534	43.6887	30.7418	141.308	50.0693	7.52821	135.724	61.6251	-17.3911	130.426	52.1494	-42.2799	161.142	23.3021	-39.0227	133.722	31.1697	-51.7749	111.347	35.4236	-28.1692	152.158	7.40608	-44.9168	122.968	16.2963	-48.9053	111.246	23.9958	-13.6599	140.258	-11.1296	-38.8091	112.888	-1.20584	-37.7506	110.311	11.6338	-5.85075	136.732	-26.2686	-25.086	109.29	-11.2939	-27.5132	111.498	5.12374	0.539071	168.53	-20.3111	12.2679	170.913	-17.1025	42.0795	180.001	12.3642	26.2689	
98	0.816667	155.653	43.4404	35.1651	142.705	53.41	10.6224	140.399	56.9412	-16.5886	136.568	52.9167	-43.9841	160.722	23.7529	-38.3356	132.857	29.6634	-50.9252	111.305	39.0007	-25.5385	152.401	5.35986	-43.7397	120.387	15.9176	-47.8189	109.813	25.1767	-17.6003	143.352	-12.138	-35.9785	115.16	-0.55081	-39.5342	109.764	12.1892	-9.52175	136.681	-30.6547	-24.1955	113.412	-8.58206	-31.1676	112.705	5.05672	-4.07486	169.62	-16.9945	14.6673	169.437	-17.8636	45.6894	179.744	14.0587	24.8782	
99	0.825	158.764	42.5402	35.0023	148.005	51.3641	10.531	148.777	56.7489	-18.9214	146.202	51.9458	-44.3116	162.202	27.3428	-37.1896	136.496	33.2165	-51.246	113.145	37.181	-24.0264	154.7	8.95205	-43.0359	124.696	15.4405	-49.0209	109.718	25.9772	-17.4839	144.043	-10.6273	-37.2324	114.42	-0.72723	-38.7896	109.033	10.5882	-8.6953	137.346	-29.5132	-26.8731	111.343	-13.3621	-30.3043	111.045	6.65965	-4.80293	168.764	-19.0082	12.7031	169.508	-20.1701	45.4822	178.729	12.8173	27.6728	
100	0.833333	159.828	39.5639	36.8605	154.533	53.114	11.3454	155.161	57.8028	-14.7983	154.667	46.8215	-40.428	162.53	22.5194	-36.7942	134.898	32.4055	-50.6539	114.425	35.3628	-27.1975	154.774	5.45303	-40.4768	124.126	14.0759	-48.5284	108.989	24.2306	-19.3314	146.205	-12.916	-35.3076	117.073	1.03246	-41.0345	110.858	13.5752	-7.77731	139.17	-28.3447	-23.1999	116.027	-12.6866	-33.2386	109.89	4.32723	-4.7336	169.273	-17.5452	15.7398	168.212	-21.0747	45.5602	180.782	9.7292	28.7916	
101	0.841667	162.601	41.2674	34.1942	156.937	48.8779	9.74876	161.765	56.8939	-18.1636	160.111	52.7126	-38.8042	163.787	26.0559	-38.6378	137.626	33.1186	-51.0586	114.194	36.9718	-24.6191	154.833	5.41448	-41.9177	127.768	15.5447	-49.6553	108.754	26.36	-17.254	147.251	-9.87886	-36.1095	118.323	1.06697	-40.8879	110.594	15.1739	-10.892	139.604	-26.3894	-21.1291	115.221	-11.3703	-31.392	109.43	6.9087	-5.58938	167.749	-19.7605	19.4088	167.109	-17.1587	48.0279	179.704	7.93562	29.1286	
102	0.85	160.932	38.749	35.7853	157.042	52.4517	11.5068	161.168	59.3401	-17.3237	158.147	53.4555	-36.865	164.249	23.6227	-36.0024	137.821	30.6659	-51.3222	113.919	36.9403	-27.0902	155.931	4.91886	-39.8646	124.573	15.1578	-49.1527	107.434	23.908	-15.1315	146.036	-12.4836	-33.6528	118.694	1.14982	-41.4968	109.371	15.3555	-11.6979	138.087	-26.0032	-24.6182	114.315	-12.086	-31.63	108.204	5.31703	-5.79315	169.237	-18.9599	14.3678	167.667	-19.0733	49.2591	179.223	7.63821	29.9802	
